<svg xmlns="http://www.w3.org/2000/svg" viewBox="0 0 100 100" width="100" height="100">
  <!-- Red rounded square — sama dengan navbar -->
  <rect width="100" height="100" rx="22" fill="#C60000"/>
  <!--
    Lucide Droplets icon (exact paths dari lucide.dev)
    Original viewBox: 0 0 24 24
    Scale factor: 3.2 → icon mengisi ~77x77px
    Translate: (16, 12) untuk center-ish positioning
  -->
  <g
    transform="translate(13, 11) scale(3.2)"
    fill="white"
    stroke="white"
    stroke-width="1.5"
    stroke-linecap="round"
    stroke-linejoin="round"
  >
    <path d="M7 16.3c2.2 0 4-1.83 4-4.05 0-1.16-.57-2.26-1.71-3.19S7.29 6.75 7 5.3c-.29 1.45-1.14 2.84-2.29 3.76S3 11.1 3 12.25c0 2.22 1.8 4.05 4 4.05z"/>
    <path d="M12.56 6.6A10.97 10.97 0 0 0 14 3.02c.5 2.5 2 4.9 4 6.5s3 3.5 3 5.5a6.98 6.98 0 0 1-11.91 4.97"/>
  </g>
</svg>
